<?xml version="1.0" encoding="UTF-8"?>
<svg id="_圖層_1" data-name="圖層 1" xmlns="http://www.w3.org/2000/svg" viewBox="0 0 153.0415 153.0415">
  <defs>
    <style>
      .cls-1 {
        fill: #fff;
        stroke: #fff;
      }

      .cls-1, .cls-2 {
        stroke-miterlimit: 10;
        stroke-width: 4px;
      }

      .cls-2 {
        fill: none;
        stroke: #0b2742;
      }

      .cls-3 {
        fill: #0b2742;
      }
    </style>
  </defs>
  <circle class="cls-1" cx="76.5208" cy="76.5208" r="74.5208"/>
  <path class="cls-2" d="M149.8774,63.4445c.8383,4.6986,1.2233,9.4668,1.1497,14.2389-.6301,40.8759-34.7819,73.9869-75.6549,73.3491C34.4992,150.3947,1.3843,116.2341,2.0144,75.3582,2.6445,34.4822,36.7964,1.3713,77.6693,2.0091c24.2872.379,46.9173,12.6113,60.5415,32.7248"/>
  <path class="cls-2" d="M14.9792,118.5515c4.01-4.985,9.2891-10.5963,16.111-15.9865,14.902-11.7745,30.0651-16.8835,39.8987-19.2573"/>
  <path class="cls-2" d="M70.989,83.3077c-.6742,5.4528-2.7556,15.9529-10.3798,26.2703-12.2433,16.5684-29.9431,20.7068-34.6798,21.6571"/>
  <path class="cls-2" d="M70.989,83.3077c1.2058,3.1627,8.1848,22.4105-2.0183,41.8073-6.3513,12.0741-16.167,18.1353-20.5115,20.4698"/>
  <path class="cls-2" d="M68.1642,151.0605c4.9861-2.1607,12.5141-6.2792,19.1931-13.9438,3.4995-4.0159,8.7998-11.4764,10.6955-22.6705,1.1849-6.9971-.1107-12.5839-1.1144-16.4339-1.7369-6.6621-5.3549-11.8843-10.9564-19.0295-7.8418-10.0028-10.547-11.6432-10.547-16.8331,0-6.1921,7.087-9.1163,7.087-9.1163,21.254.1409,41.8093-.2787,63.0634-.1377"/>
  <path class="cls-2" d="M55.2955,42.0811c-.7074,1.5619-1.6281,4.1078-1.7726,7.3437,0,0-.127,2.8434.5936,5.7503,1.7554,7.0815,8.7124,14.6183,9.9527,15.7346,0,0,10.1185,10.7133,18.1646,30.0199,3.4095,8.1812,4.4693,14.2286,4.7052,15.579,1.4863,8.5072,1.0587,15.7324.4184,20.6082"/>
  <path class="cls-2" d="M144.1714,53.5131c-.8791,2.0031-4.1262,5.791-6.2919,10.5891-3.3538,7.4305-3.5832,10.0564-6.342,15.169-.6048,1.1208-5.8152,8.1861-14.0159,11.9127-13.755,6.2507-28.822-7.8761-29.5873-9.6779"/>
  <path class="cls-2" d="M85.1182,44.6033c4.1096-.0623,48.9772-.1061,48.9772-.1061.7135-.0318,4.5379.0902,7.3661,2.5489,2.4774,2.1537,2.5522,6.4391,2.5337,7.219"/>
  <path class="cls-2" d="M43.1327,35.16c.0506,1.2155,2.2371,5.1714,6.9462,7.3263,2.4005,1.0984,4.9327.252,6.6853,1.0636"/>
  <path class="cls-2" d="M41.1218,33.2457c11.5836-.1086,29.8672,0,29.8672,0,0,0,7.2671-.1491,10.2498,2.9827,3.5336,3.7102,5.3902,6.9432,5.8162,9.5446"/>
  <path class="cls-3" d="M74.544,45.8792h-3.6357c0-1.9945,1.6412-3.6357,3.6357-3.6357s3.6357,1.6412,3.6357,3.6357h-3.6357Z"/>
  <path class="cls-3" d="M147.9404,63.9411c.8908-1.6224,2.6725-4.8673,2.6725-4.8673.3259.758.576,1.4313.7655,1.9855,0,0,.3699,1.4596.493,2.1847"/>
  <path class="cls-3" d="M140.0999,33.9617c-.1226-.1959-.1635-.2634-.2482-.3012-.6913-.308-2.3249,1.6539-3.2041,2.3062,1.7277.6641,5.183,1.9923,5.183,1.9923-.2404-.7893-.484-1.4649-.697-2.0106,0,0-.3472-.8896-1.0338-1.9868Z"/>
</svg>